<svg width="150" height="150" viewBox="0 0 150 150" fill="none" xmlns="http://www.w3.org/2000/svg">
<circle cx="75" cy="75" r="74.5" fill="url(#paint0_radial_1_12)" stroke="#1E1E1E"/>
<path d="M44.9908 85V58.8182H48.1612V71.8068H48.468L60.2294 58.8182H64.3715L53.3771 70.6307L64.3715 85H60.5362L51.4339 72.8295L48.1612 76.5114V85H44.9908ZM78.4979 58.8182H81.6683V77.5341C81.6683 79.2045 81.3615 80.6236 80.7479 81.7912C80.1342 82.9588 79.2692 83.8452 78.1527 84.4503C77.0362 85.0554 75.7195 85.358 74.2024 85.358C72.7706 85.358 71.4964 85.098 70.38 84.5781C69.2635 84.0497 68.3857 83.2997 67.7464 82.3281C67.1072 81.3565 66.7876 80.2017 66.7876 78.8636H69.907C69.907 79.6051 70.0902 80.2528 70.4567 80.8068C70.8317 81.3523 71.343 81.7784 71.9908 82.0852C72.6385 82.392 73.3757 82.5455 74.2024 82.5455C75.1143 82.5455 75.8899 82.3537 76.5291 81.9702C77.1683 81.5866 77.6541 81.0241 77.9865 80.2827C78.3274 79.5327 78.4979 78.6165 78.4979 77.5341V58.8182ZM89.0959 85H85.772L95.3857 58.8182H98.6584L108.272 85H104.948L97.1243 62.9602H96.9197L89.0959 85ZM90.3232 74.7727H103.721V77.5852H90.3232V74.7727Z" fill="url(#paint1_radial_1_12)"/>
<defs>
<radialGradient id="paint0_radial_1_12" cx="0" cy="0" r="1" gradientUnits="userSpaceOnUse" gradientTransform="translate(75 75) rotate(90) scale(75)">
<stop stop-color="#C5DE96"/>
<stop offset="1" stop-color="#192D50"/>
</radialGradient>
<radialGradient id="paint1_radial_1_12" cx="0" cy="0" r="1" gradientUnits="userSpaceOnUse" gradientTransform="translate(75.5 75) rotate(90) scale(25 35.5)">
<stop/>
<stop offset="1" stop-color="#018599"/>
</radialGradient>
</defs>
</svg>
